<?xml version="1.0" encoding="UTF-8" standalone="no"?>
<svg
   xmlns:dc="http://purl.org/dc/elements/1.1/"
   xmlns:cc="http://creativecommons.org/ns#"
   xmlns:rdf="http://www.w3.org/1999/02/22-rdf-syntax-ns#"
   xmlns:svg="http://www.w3.org/2000/svg"
   xmlns="http://www.w3.org/2000/svg"
   xmlns:sodipodi="http://sodipodi.sourceforge.net/DTD/sodipodi-0.dtd"
   xmlns:inkscape="http://www.inkscape.org/namespaces/inkscape"
   version="1.0"
   width="19.335037"
   height="24.262999"
   viewBox="0 0 15.46803 19.410399"
   preserveAspectRatio="xMidYMid meet"
   id="svg2"
   inkscape:version="0.48.3.1 r9886"
   sodipodi:docname="logo.svg">
  <defs
     id="defs122" />
  <sodipodi:namedview
     pagecolor="#ffffff"
     bordercolor="#666666"
     borderopacity="1"
     objecttolerance="10"
     gridtolerance="10"
     guidetolerance="10"
     inkscape:pageopacity="0"
     inkscape:pageshadow="2"
     inkscape:window-width="1360"
     inkscape:window-height="778"
     id="namedview120"
     showgrid="false"
     fit-margin-top="0"
     fit-margin-left="0"
     fit-margin-right="0"
     fit-margin-bottom="0"
     inkscape:zoom="9.4934586"
     inkscape:cx="-0.25146257"
     inkscape:cy="-5.1252903"
     inkscape:window-x="348"
     inkscape:window-y="137"
     inkscape:window-maximized="0"
     inkscape:current-layer="svg2" />
  <metadata
     id="metadata4">
Created by potrace 1.10, written by Peter Selinger 2001-2011
<rdf:RDF>
  <cc:Work
     rdf:about="">
    <dc:format>image/svg+xml</dc:format>
    <dc:type
       rdf:resource="http://purl.org/dc/dcmitype/StillImage" />
  </cc:Work>
</rdf:RDF>
</metadata>
  <g
     transform="matrix(0.00494897,0,0,-0.00494897,-1.3857116,21.523607)"
     id="g6"
     style="fill:#daa520;fill-opacity:0.94117647;stroke:none">
    <path
       d="m 1408,4343 c 6,-2 10,-9 6,-14 -3,-5 2,-9 10,-9 9,0 16,7 16,15 0,9 -9,15 -22,14 -13,0 -17,-3 -10,-6 z"
       id="path8"
       inkscape:connector-curvature="0"
       style="fill:#daa520;fill-opacity:0.94117647" />
    <path
       d="m 1490,4322 c 0,-27 -27,-49 -42,-34 -18,18 -28,14 -28,-8 0,-11 -6,-23 -14,-26 -9,-3 -12,-18 -10,-45 4,-47 -6,-50 -24,-9 -8,17 -20,30 -29,30 -16,0 -13,-17 18,-89 11,-24 17,-46 14,-49 -6,-6 -35,17 -35,28 0,4 -11,28 -25,51 -23,40 -25,42 -25,17 0,-15 7,-33 14,-41 16,-16 15,-69 -1,-74 -15,-5 -39,37 -46,81 -7,47 -23,67 -33,42 -4,-10 1,-25 11,-36 9,-10 15,-23 12,-27 -3,-5 -2,-25 2,-44 10,-44 4,-64 -13,-46 -7,6 -15,20 -19,30 -11,29 -27,19 -27,-18 0,-19 -4,-35 -10,-35 -5,0 -17,16 -26,35 -9,19 -18,35 -20,35 -7,0 9,-95 18,-98 4,-2 8,-21 8,-43 0,-21 9,-54 20,-74 11,-20 20,-45 20,-57 0,-20 -1,-20 -19,4 -11,13 -23,38 -27,54 -4,16 -16,35 -26,42 -11,8 -18,26 -18,47 0,19 -4,37 -10,40 -21,13 1,-96 35,-170 7,-16 18,-48 24,-70 6,-22 18,-50 27,-63 9,-13 14,-25 12,-28 -3,-2 -16,13 -29,34 -33,50 -55,50 -51,-2 3,-26 0,-36 -7,-32 -6,4 -11,14 -11,22 0,8 -3,14 -8,14 -4,0 -15,12 -25,28 l -18,27 5,-39 c 3,-21 19,-67 36,-103 34,-74 34,-73 20,-73 -9,0 -31,40 -34,60 -1,3 -13,18 -28,33 -26,26 -28,26 -28,7 0,-11 4,-20 8,-20 4,0 8,-16 8,-35 0,-19 -4,-35 -8,-35 -4,0 -8,9 -8,20 0,12 -10,24 -22,30 -14,5 -17,9 -8,10 13,0 13,1 0,10 -30,19 -40,12 -25,-17 28,-54 45,-96 45,-109 0,-7 11,-30 25,-50 31,-45 35,-82 5,-44 -11,14 -20,30 -20,36 0,6 -7,17 -15,24 -9,7 -33,50 -55,96 -35,71 -60,109 -60,90 0,-15 35,-93 48,-108 8,-10 12,-18 8,-18 -4,0 0,-7 8,-16 9,-8 16,-23 17,-32 1,-23 6,-52 14,-82 6,-23 5,-22 -12,5 -18,28 -35,63 -37,76 -1,3 -9,13 -19,23 -9,10 -17,26 -17,35 0,10 -7,24 -15,31 -13,10 -15,9 -15,-8 0,-11 7,-27 15,-36 9,-8 14,-19 13,-23 -4,-17 14,-72 27,-83 8,-6 17,-26 20,-43 4,-18 14,-40 23,-50 12,-13 13,-20 4,-29 -9,-9 -17,0 -32,38 -12,27 -30,65 -40,84 -11,19 -27,50 -35,68 -13,27 -35,44 -35,26 0,-6 46,-109 65,-144 18,-33 30,-100 18,-100 -9,0 -43,68 -43,86 0,6 -11,25 -25,44 -14,19 -25,42 -25,53 0,10 -4,16 -9,13 -9,-6 16,-85 30,-96 3,-3 9,-23 13,-45 4,-22 13,-46 19,-53 13,-16 -8,-33 -30,-25 -7,3 -13,0 -13,-6 0,-6 -9,-11 -20,-11 -11,0 -20,-4 -20,-10 0,-5 -7,-10 -15,-10 -8,0 -31,-9 -51,-20 -20,-12 -41,-19 -47,-17 -5,1 -21,-7 -35,-20 -14,-13 -33,-23 -42,-23 -20,0 -84,-70 -111,-122 -11,-22 -23,-75 -29,-130 -13,-122 -14,-115 14,-120 18,-4 45,9 97,44 48,33 92,54 133,63 33,8 62,19 64,25 2,5 27,10 56,10 45,0 52,-3 53,-20 1,-14 -4,-20 -18,-20 -11,0 -22,-7 -25,-15 -4,-8 -9,-13 -13,-11 -4,3 -13,1 -21,-5 -12,-7 -12,-9 3,-9 10,0 16,-4 13,-9 -4,-5 3,-7 15,-4 14,4 22,0 25,-14 7,-25 46,-44 65,-32 8,5 22,9 32,9 14,0 17,-5 12,-20 -8,-24 3,-25 33,-4 14,9 30,13 40,8 24,-10 44,-11 64,-2 10,5 22,3 30,-5 7,-6 24,-13 38,-14 151,-10 170,-10 170,3 0,12 33,12 77,-1 6,-2 14,3 17,11 4,10 13,13 32,8 24,-6 26,-4 22,14 -6,20 -6,20 28,1 42,-23 51,-24 34,-4 -10,12 -10,15 1,16 8,0 5,4 -6,9 -15,7 -10,9 25,10 25,1 61,1 81,0 35,-1 66,19 41,28 -19,6 -14,22 7,22 10,0 30,-11 45,-25 34,-32 43,-32 22,0 -9,13 -16,29 -16,35 0,17 48,11 59,-7 15,-28 22,-10 7,19 -17,33 -8,48 29,45 21,-1 29,2 27,12 -2,9 3,11 15,6 32,-12 38,-10 35,9 -3,17 1,18 37,12 22,-3 42,-2 46,4 3,5 19,7 35,3 20,-4 30,-1 30,7 0,9 47,11 203,8 111,-3 211,-8 221,-13 13,-5 17,-5 13,2 -4,6 -35,16 -69,23 -75,16 -128,37 -128,50 0,5 -10,12 -22,16 -13,3 -30,21 -39,39 -15,31 -14,34 2,48 27,24 57,38 87,42 15,1 31,3 37,4 5,0 -16,25 -48,54 -50,47 -65,55 -121,65 -35,7 -73,12 -84,12 -11,0 -34,11 -50,25 -16,13 -32,22 -34,19 -3,-2 -3,6 -1,18 3,14 -4,32 -17,45 -11,13 -36,50 -56,83 -19,33 -39,60 -45,60 -11,0 7,-35 35,-67 10,-12 20,-35 22,-50 1,-15 9,-32 17,-38 7,-5 12,-16 10,-22 -3,-7 0,-13 6,-13 6,0 11,-7 11,-15 0,-21 -28,-19 -35,4 -3,10 -23,37 -43,61 -21,23 -46,56 -54,74 -9,17 -31,61 -48,98 -18,37 -38,69 -44,71 -7,3 -13,22 -14,43 -3,37 -2,38 12,19 9,-11 16,-26 16,-33 0,-7 4,-10 10,-7 6,3 7,-1 4,-9 -4,-10 3,-20 20,-27 17,-8 28,-23 32,-46 4,-19 12,-33 21,-33 9,0 11,5 6,13 -4,6 -9,19 -10,28 -1,9 -24,52 -51,96 -44,71 -72,132 -72,154 0,12 35,6 54,-10 18,-15 22,-1 5,16 -16,16 -58,93 -97,177 -6,12 37,-4 59,-22 10,-9 19,-20 19,-24 0,-13 52,-88 61,-88 8,0 -52,103 -125,214 -19,28 -37,61 -41,74 -3,12 -10,22 -15,22 -4,0 -10,9 -13,20 -4,14 -10,18 -23,13 -12,-4 -15,-3 -10,5 4,7 1,12 -8,12 -9,0 -16,5 -16,10 0,6 7,10 15,10 8,0 15,4 15,9 0,22 -94,38 -116,20 -11,-9 -18,-8 -29,1 -12,10 -15,9 -15,-8 z m -50,-93 c 0,-18 -2,-19 -15,-9 -8,7 -15,16 -15,21 0,5 7,9 15,9 9,0 15,-9 15,-21 z m 273,-117 c 7,-15 16,-21 26,-17 13,5 14,4 3,-7 -11,-11 -17,-9 -33,11 -10,13 -19,33 -18,45 0,13 2,16 6,6 2,-8 9,-25 16,-38 z m -383,-61 c 0,-6 -4,-13 -10,-16 -5,-3 -10,1 -10,9 0,9 5,16 10,16 6,0 10,-4 10,-9 z m 84,-36 c 3,-8 1,-15 -4,-15 -6,0 -10,7 -10,15 0,8 2,15 4,15 2,0 6,-7 10,-15 z m -206,-30 c 15,-32 15,-35 1,-35 -11,0 -48,40 -49,53 -1,19 38,4 48,-18 z m 41,-101 c 3,-16 1,-17 -13,-5 -19,16 -21,34 -3,29 6,-3 14,-13 16,-24 z m -9,-125 c 0,-14 -17,-10 -23,5 -4,10 -1,13 9,9 7,-3 14,-9 14,-14 z m 600,-239 c 0,-5 -4,-10 -9,-10 -6,0 -13,5 -16,10 -3,6 1,10 9,10 9,0 16,-4 16,-10 z m 20,-36 c 0,-8 -5,-12 -10,-9 -6,4 -8,11 -5,16 9,14 15,11 15,-7 z M 877,2814 c -3,-4 -14,-3 -24,0 -15,6 -15,8 -3,16 16,10 39,-4 27,-16 z m 538,-34 c 3,-5 1,-10 -4,-10 -6,0 -11,5 -11,10 0,6 2,10 4,10 3,0 8,-4 11,-10 z"
       id="path10"
       inkscape:connector-curvature="0"
       style="fill:#daa520;fill-opacity:0.94117647" />
    <path
       d="m 1670,4320 c 0,-13 20,-13 40,0 12,8 9,10 -12,10 -16,0 -28,-4 -28,-10 z"
       id="path12"
       inkscape:connector-curvature="0"
       style="fill:#daa520;fill-opacity:0.94117647" />
    <path
       d="m 1158,4203 c -4,-21 23,-103 34,-103 12,0 9,78 -3,85 -6,4 -8,13 -5,21 3,8 -1,14 -9,14 -7,0 -15,-8 -17,-17 z"
       id="path14"
       inkscape:connector-curvature="0"
       style="fill:#daa520;fill-opacity:0.94117647" />
    <path
       d="m 1760,4201 c 0,-5 5,-13 10,-16 6,-3 10,-2 10,4 0,5 -4,13 -10,16 -5,3 -10,2 -10,-4 z"
       id="path16"
       inkscape:connector-curvature="0"
       style="fill:#daa520;fill-opacity:0.94117647" />
    <path
       d="m 1120,4148 c 0,-15 5,-30 10,-33 13,-8 13,25 0,45 -8,12 -10,9 -10,-12 z"
       id="path18"
       inkscape:connector-curvature="0"
       style="fill:#daa520;fill-opacity:0.94117647" />
    <path
       d="m 1030,3967 c 0,-14 19,-37 31,-37 4,0 2,11 -4,25 -13,27 -27,33 -27,12 z"
       id="path20"
       inkscape:connector-curvature="0"
       style="fill:#daa520;fill-opacity:0.94117647" />
    <path
       d="m 981,3954 c 0,-11 3,-14 6,-6 3,7 2,16 -1,19 -3,4 -6,-2 -5,-13 z"
       id="path22"
       inkscape:connector-curvature="0"
       style="fill:#daa520;fill-opacity:0.94117647" />
    <path
       d="m 988,3908 c 3,-12 11,-34 19,-48 12,-24 13,-24 13,-3 0,26 -20,73 -31,73 -4,0 -5,-10 -1,-22 z"
       id="path24"
       inkscape:connector-curvature="0"
       style="fill:#daa520;fill-opacity:0.94117647" />
    <path
       d="m 1055,3880 c 8,-16 15,-36 15,-44 0,-26 23,-66 37,-66 10,0 12,8 7,28 -12,51 -44,112 -60,112 -13,0 -13,-3 1,-30 z"
       id="path26"
       inkscape:connector-curvature="0"
       style="fill:#daa520;fill-opacity:0.94117647" />
    <path
       d="m 1020,3820 c 0,-5 5,-10 10,-10 6,0 10,5 10,10 0,6 -4,10 -10,10 -5,0 -10,-4 -10,-10 z"
       id="path28"
       inkscape:connector-curvature="0"
       style="fill:#daa520;fill-opacity:0.94117647" />
    <path
       d="m 1935,3799 c 9,-17 18,-29 21,-27 6,6 -20,58 -29,58 -4,0 0,-14 8,-31 z"
       id="path30"
       inkscape:connector-curvature="0"
       style="fill:#daa520;fill-opacity:0.94117647" />
    <path
       d="m 1860,3801 c 0,-5 5,-13 10,-16 6,-3 10,-2 10,4 0,5 -4,13 -10,16 -5,3 -10,2 -10,-4 z"
       id="path32"
       inkscape:connector-curvature="0"
       style="fill:#daa520;fill-opacity:0.94117647" />
    <path
       d="m 976,3777 c -6,-12 -3,-24 8,-36 9,-10 16,-25 16,-34 0,-9 5,-17 10,-17 15,0 12,26 -4,40 -8,6 -16,24 -19,38 -3,23 -4,24 -11,9 z"
       id="path34"
       inkscape:connector-curvature="0"
       style="fill:#daa520;fill-opacity:0.94117647" />
    <path
       d="m 1038,3773 c 7,-3 16,-2 19,1 4,3 -2,6 -13,5 -11,0 -14,-3 -6,-6 z"
       id="path36"
       inkscape:connector-curvature="0"
       style="fill:#daa520;fill-opacity:0.94117647" />
    <path
       d="m 1880,3761 c 0,-8 7,-22 15,-31 8,-9 28,-41 43,-71 32,-62 135,-219 140,-214 4,4 -39,84 -55,103 -7,7 -29,43 -50,80 -20,37 -41,69 -45,70 -4,2 -8,10 -8,17 0,18 -39,64 -40,46 z"
       id="path38"
       inkscape:connector-curvature="0"
       style="fill:#daa520;fill-opacity:0.94117647" />
    <path
       d="m 1977,3729 c 12,-19 30,-50 42,-69 11,-19 21,-31 21,-26 0,13 -60,115 -73,123 -6,3 -1,-9 10,-28 z"
       id="path40"
       inkscape:connector-curvature="0"
       style="fill:#daa520;fill-opacity:0.94117647" />
    <path
       d="m 871,3724 c 0,-11 3,-14 6,-6 3,7 2,16 -1,19 -3,4 -6,-2 -5,-13 z"
       id="path42"
       inkscape:connector-curvature="0"
       style="fill:#daa520;fill-opacity:0.94117647" />
    <path
       d="m 930,3722 c 0,-5 7,-17 15,-28 15,-19 20,-8 9,20 -6,17 -24,22 -24,8 z"
       id="path44"
       inkscape:connector-curvature="0"
       style="fill:#daa520;fill-opacity:0.94117647" />
    <path
       d="m 740,3469 c 0,-25 16,-49 32,-49 16,0 8,37 -12,55 -19,18 -20,17 -20,-6 z"
       id="path46"
       inkscape:connector-curvature="0"
       style="fill:#daa520;fill-opacity:0.94117647" />
    <path
       d="m 690,3460 c 0,-5 4,-10 9,-10 5,0 11,-10 14,-22 4,-12 9,-19 13,-15 4,4 1,18 -6,32 -13,25 -30,33 -30,15 z"
       id="path48"
       inkscape:connector-curvature="0"
       style="fill:#daa520;fill-opacity:0.94117647" />
    <path
       d="m 2096,3407 c 3,-10 9,-15 12,-12 3,3 0,11 -7,18 -10,9 -11,8 -5,-6 z"
       id="path50"
       inkscape:connector-curvature="0"
       style="fill:#daa520;fill-opacity:0.94117647" />
    <path
       d="m 797,3338 c 3,-24 13,-48 22,-55 23,-16 25,-10 11,34 -7,21 -14,44 -16,51 -2,6 -8,12 -14,12 -6,0 -8,-15 -3,-42 z"
       id="path52"
       inkscape:connector-curvature="0"
       style="fill:#daa520;fill-opacity:0.94117647" />
    <path
       d="m 746,3344 c 6,-26 41,-94 48,-94 10,0 -22,90 -37,104 -17,18 -18,17 -11,-10 z"
       id="path54"
       inkscape:connector-curvature="0"
       style="fill:#daa520;fill-opacity:0.94117647" />
    <path
       d="m 711,3333 c 0,-4 4,-17 9,-28 8,-19 9,-19 9,2 1,12 -3,25 -9,28 -5,3 -10,3 -9,-2 z"
       id="path56"
       inkscape:connector-curvature="0"
       style="fill:#daa520;fill-opacity:0.94117647" />
    <path
       d="m 733,3274 c -3,-8 -1,-20 6,-27 8,-8 11,-4 11,16 0,30 -7,35 -17,11 z"
       id="path58"
       inkscape:connector-curvature="0"
       style="fill:#daa520;fill-opacity:0.94117647" />
    <path
       d="m 690,3226 c 0,-9 5,-16 10,-16 6,0 10,4 10,9 0,6 -4,13 -10,16 -5,3 -10,-1 -10,-9 z"
       id="path60"
       inkscape:connector-curvature="0"
       style="fill:#daa520;fill-opacity:0.94117647" />
    <path
       d="m 3056,2984 c -20,-19 -20,-35 -1,-60 32,-42 4,-62 -31,-23 -27,31 -95,79 -111,79 -26,0 5,-37 72,-86 42,-31 68,-58 72,-74 3,-14 12,-36 20,-49 18,-28 3,-51 -17,-26 -7,8 -17,15 -23,15 -6,0 0,-11 13,-25 16,-17 34,-25 55,-25 29,0 32,3 27,25 -2,14 1,31 6,38 7,8 9,29 5,51 -3,22 -1,46 6,60 11,19 9,28 -9,59 -19,32 -47,57 -64,57 -2,0 -12,-7 -20,-16 z"
       id="path62"
       inkscape:connector-curvature="0"
       style="fill:#daa520;fill-opacity:0.94117647" />
    <path
       d="m 2010,2911 c 12,-24 30,-36 30,-22 0,6 -4,11 -10,11 -5,0 -10,7 -10,15 0,8 -5,15 -10,15 -7,0 -7,-6 0,-19 z"
       id="path64"
       inkscape:connector-curvature="0"
       style="fill:#daa520;fill-opacity:0.94117647" />
    <path
       d="m 1940,2904 c 0,-14 61,-93 73,-93 14,-2 5,15 -33,59 -22,25 -40,40 -40,34 z"
       id="path66"
       inkscape:connector-curvature="0"
       style="fill:#daa520;fill-opacity:0.94117647" />
    <path
       d="m 1871,2878 c 6,-13 28,-41 49,-63 21,-22 60,-65 88,-95 29,-30 52,-50 52,-44 0,5 -25,35 -55,66 -30,31 -55,59 -55,62 0,4 -16,23 -35,43 -19,20 -35,40 -35,45 0,4 -5,8 -10,8 -7,0 -7,-8 1,-22 z"
       id="path68"
       inkscape:connector-curvature="0"
       style="fill:#daa520;fill-opacity:0.94117647" />
    <path
       d="m 2060,2851 c 0,-4 18,-28 41,-52 23,-24 52,-57 65,-72 13,-16 24,-24 24,-18 0,6 -17,30 -37,53 -58,64 -93,97 -93,89 z"
       id="path70"
       inkscape:connector-curvature="0"
       style="fill:#daa520;fill-opacity:0.94117647" />
    <path
       d="m 3170,2818 c 0,-19 7,-41 15,-48 8,-7 15,-23 15,-37 0,-13 4,-22 9,-19 12,8 -7,108 -25,126 -12,12 -14,10 -14,-22 z"
       id="path72"
       inkscape:connector-curvature="0"
       style="fill:#daa520;fill-opacity:0.94117647" />
    <path
       d="m 1891,2753 c 39,-48 99,-103 99,-91 0,14 -91,108 -105,108 -4,0 -1,-8 6,-17 z"
       id="path74"
       inkscape:connector-curvature="0"
       style="fill:#daa520;fill-opacity:0.94117647" />
    <path
       d="m 1730,2746 c 0,-9 5,-16 10,-16 6,0 10,4 10,9 0,6 -4,13 -10,16 -5,3 -10,-1 -10,-9 z"
       id="path76"
       inkscape:connector-curvature="0"
       style="fill:#daa520;fill-opacity:0.94117647" />
    <path
       d="m 1810,2747 c 0,-18 47,-40 55,-27 4,6 -1,10 -10,10 -8,0 -18,7 -21,15 -8,19 -24,20 -24,2 z"
       id="path78"
       inkscape:connector-curvature="0"
       style="fill:#daa520;fill-opacity:0.94117647" />
    <path
       d="m 515,2725 c -27,-9 -60,-19 -72,-22 -13,-3 -23,-9 -23,-14 0,-5 -22,-20 -50,-34 -27,-14 -50,-30 -50,-35 0,-6 -9,-10 -20,-10 -16,0 -20,-7 -20,-34 0,-18 4,-46 9,-62 5,-16 12,-41 15,-56 5,-22 12,-28 34,-28 15,0 35,9 45,20 17,20 43,28 32,10 -3,-5 -1,-10 5,-10 7,0 9,-8 4,-22 -11,-35 -5,-87 15,-132 16,-35 19,-38 25,-21 4,11 14,33 22,48 8,16 11,34 7,39 -3,6 -1,8 5,4 6,-3 13,2 15,11 3,12 5,8 6,-9 1,-29 16,-45 24,-26 4,10 8,9 17,-2 18,-25 3,-98 -28,-136 -26,-31 -27,-38 -22,-94 6,-64 25,-89 66,-90 36,0 48,-26 48,-101 0,-38 3,-69 6,-69 3,0 5,-21 4,-47 -1,-28 5,-56 14,-68 10,-15 13,-15 9,-3 -3,9 -1,19 6,22 8,4 8,8 2,11 -6,3 -10,39 -9,87 1,45 -2,91 -8,101 -6,12 -7,22 0,26 5,3 10,88 11,195 2,137 6,199 16,224 8,18 19,31 24,28 5,-4 12,-2 16,4 3,5 25,10 48,11 33,1 37,3 18,8 l -24,6 27,12 c 14,7 26,18 26,24 0,8 4,8 13,1 9,-7 17,-8 27,-1 11,8 12,12 3,16 -7,2 -13,12 -13,20 0,12 7,14 30,10 22,-5 30,-3 30,8 0,8 5,15 11,15 6,0 9,6 6,14 -6,15 16,30 27,19 3,-4 6,-34 6,-68 0,-38 5,-68 15,-81 8,-10 15,-28 15,-40 0,-26 48,-100 91,-141 40,-37 119,-80 169,-93 26,-7 18,-7 -30,-3 -60,5 -64,4 -50,-11 10,-10 42,-18 93,-22 73,-7 77,-6 77,13 0,12 6,23 14,26 10,4 12,-1 9,-16 -4,-18 1,-15 28,14 41,43 81,69 109,69 14,0 20,7 20,23 1,29 27,60 68,80 29,14 32,14 33,-1 0,-12 3,-11 9,6 11,26 18,27 47,7 12,-8 30,-12 40,-9 24,8 64,24 86,36 14,7 22,5 33,-9 7,-10 14,-24 14,-30 0,-7 7,-13 15,-13 8,0 15,-4 15,-9 0,-5 21,-28 47,-52 25,-24 57,-54 70,-66 13,-13 36,-26 51,-29 15,-4 29,-10 32,-14 3,-4 27,-10 54,-14 42,-7 48,-5 43,8 -4,9 -3,16 1,17 58,5 78,11 119,34 68,40 87,56 131,111 52,66 59,80 67,139 10,70 18,81 35,50 10,-20 19,-25 35,-20 11,3 56,8 100,10 44,3 91,8 103,11 31,7 87,-52 102,-106 6,-24 17,-40 25,-40 8,0 15,-7 15,-16 0,-25 24,-10 35,22 12,39 12,39 29,25 8,-7 19,-10 25,-7 14,9 50,-41 57,-81 6,-31 8,-32 19,-16 7,10 15,38 19,63 4,24 11,49 15,55 5,5 10,19 12,29 3,12 14,20 31,22 14,1 35,11 46,22 14,14 40,21 97,27 64,6 82,11 103,32 13,13 21,28 16,32 -32,29 -236,51 -479,52 -139,1 -175,6 -175,24 0,7 -9,15 -21,18 -20,5 -20,5 -3,-14 16,-18 16,-19 -11,-19 -19,0 -26,4 -22,14 3,8 -1,17 -9,20 -24,9 -36,7 -28,-5 5,-8 1,-8 -14,0 -24,13 -272,20 -272,9 0,-12 -48,-10 -55,2 -3,6 -11,10 -16,10 -6,0 -8,-4 -4,-9 12,-21 -131,-28 -149,-8 -6,7 -10,10 -9,8 8,-14 -22,-29 -47,-25 -15,4 -31,1 -34,-5 -4,-6 -20,-11 -36,-11 -16,0 -52,-5 -80,-12 -41,-9 -56,-9 -72,1 -14,8 -23,9 -27,3 -11,-19 -366,3 -398,24 -14,9 -24,10 -28,4 -4,-6 -18,-8 -33,-5 -15,3 -65,10 -112,16 -47,6 -104,17 -128,25 -23,8 -60,14 -82,14 -21,0 -40,4 -42,10 -4,11 -73,17 -288,25 -133,4 -175,2 -215,-10 z m 448,-82 c 9,-9 -12,-33 -29,-33 -8,0 -14,9 -14,20 0,19 28,28 43,13 z m 2002,-193 c -3,-5 -11,-10 -16,-10 -6,0 -7,5 -4,10 3,6 11,10 16,10 6,0 7,-4 4,-10 z m -895,-260 c 0,-5 -2,-10 -4,-10 -3,0 -8,5 -11,10 -3,6 -1,10 4,10 6,0 11,-4 11,-10 z M 540,2180 c 0,-5 -5,-10 -11,-10 -5,0 -7,5 -4,10 3,6 8,10 11,10 2,0 4,-4 4,-10 z m 767,-16 c -3,-3 -12,-4 -19,-1 -8,3 -5,6 6,6 11,1 17,-2 13,-5 z"
       id="path80"
       inkscape:connector-curvature="0"
       style="fill:#daa520;fill-opacity:0.94117647" />
    <path
       d="m 1650,2736 c 0,-2 7,-7 16,-10 8,-3 12,-2 9,4 -6,10 -25,14 -25,6 z"
       id="path82"
       inkscape:connector-curvature="0"
       style="fill:#daa520;fill-opacity:0.94117647" />
    <path
       d="m 2090,2725 c 7,-9 15,-13 17,-11 7,7 -7,26 -19,26 -6,0 -6,-6 2,-15 z"
       id="path84"
       inkscape:connector-curvature="0"
       style="fill:#daa520;fill-opacity:0.94117647" />
    <path
       d="m 1610,2701 c 0,-5 5,-13 10,-16 6,-3 10,-2 10,4 0,5 -4,13 -10,16 -5,3 -10,2 -10,-4 z"
       id="path86"
       inkscape:connector-curvature="0"
       style="fill:#daa520;fill-opacity:0.94117647" />
    <path
       d="m 1870,2699 c 0,-9 9,-24 20,-34 26,-23 26,-8 0,25 -14,18 -20,21 -20,9 z"
       id="path88"
       inkscape:connector-curvature="0"
       style="fill:#daa520;fill-opacity:0.94117647" />
    <path
       d="m 1714,2681 c 21,-23 26,-26 26,-11 0,5 -10,15 -22,21 -23,12 -23,12 -4,-10 z"
       id="path90"
       inkscape:connector-curvature="0"
       style="fill:#daa520;fill-opacity:0.94117647" />
    <path
       d="m 2868,2653 c 7,-3 16,-2 19,1 4,3 -2,6 -13,5 -11,0 -14,-3 -6,-6 z"
       id="path92"
       inkscape:connector-curvature="0"
       style="fill:#daa520;fill-opacity:0.94117647" />
    <path
       d="m 740,2415 c 0,-8 4,-15 10,-15 5,0 7,7 4,15 -4,8 -8,15 -10,15 -2,0 -4,-7 -4,-15 z"
       id="path94"
       inkscape:connector-curvature="0"
       style="fill:#daa520;fill-opacity:0.94117647" />
    <path
       d="m 920,2371 c 0,-10 7,-22 16,-25 12,-5 15,-2 10,10 -3,8 -6,20 -6,25 0,5 -4,9 -10,9 -5,0 -10,-9 -10,-19 z"
       id="path96"
       inkscape:connector-curvature="0"
       style="fill:#daa520;fill-opacity:0.94117647" />
    <path
       d="m 2245,2170 c -3,-5 -1,-10 4,-10 6,0 11,5 11,10 0,6 -2,10 -4,10 -3,0 -8,-4 -11,-10 z"
       id="path98"
       inkscape:connector-curvature="0"
       style="fill:#daa520;fill-opacity:0.94117647" />
    <path
       d="m 1520,1918 c -21,-35 -27,-88 -10,-88 17,0 11,-19 -32,-107 -43,-87 -58,-103 -96,-103 -18,0 -100,-89 -116,-127 -11,-24 -22,-43 -26,-43 -4,0 -13,-19 -20,-43 -10,-36 -9,-50 3,-80 9,-19 13,-37 11,-40 -2,-2 -7,-28 -10,-57 -6,-64 -20,-94 -41,-86 -11,4 -13,2 -9,-9 4,-11 -1,-15 -18,-15 -34,0 -56,10 -56,24 0,7 -12,18 -27,25 -16,8 -36,17 -45,22 -10,5 -25,9 -33,9 -8,0 -15,6 -15,14 0,7 -17,29 -38,48 -21,19 -37,39 -35,45 2,6 -13,30 -34,52 -21,23 -45,56 -53,74 -8,17 -27,38 -43,45 -15,7 -27,17 -27,23 0,5 -5,9 -11,9 -6,0 -8,-8 -4,-19 3,-11 7,-47 9,-81 2,-43 8,-66 22,-80 36,-37 44,-49 44,-74 0,-13 6,-26 13,-29 7,-2 13,-17 15,-33 1,-15 14,-40 30,-55 41,-40 92,-114 92,-133 0,-9 20,-38 45,-63 29,-29 49,-59 53,-82 6,-25 18,-42 40,-56 17,-11 31,-23 32,-28 0,-12 60,-91 75,-100 8,-4 19,-27 26,-50 9,-34 60,-125 89,-160 4,-4 46,11 94,33 96,44 114,47 154,26 27,-14 116,-31 139,-27 7,1 22,-3 34,-10 12,-6 31,-12 43,-14 11,-1 28,-6 38,-10 11,-4 18,0 23,15 6,20 8,20 19,4 8,-11 20,-15 30,-11 11,5 30,-3 52,-20 l 35,-26 72,33 c 40,19 79,40 87,48 13,12 10,13 -20,8 -50,-9 -166,25 -186,53 -13,18 -22,21 -45,16 -33,-7 -41,10 -8,18 18,5 20,11 14,44 -9,60 -37,71 -47,18 -2,-11 -10,-20 -18,-20 -12,0 -15,16 -15,83 0,45 -3,82 -7,82 -4,0 -5,32 -3,71 3,51 1,69 -8,66 -18,-6 -61,39 -52,53 6,9 11,8 19,-6 13,-23 29,-27 67,-19 36,8 45,37 23,74 -21,35 -13,61 19,61 26,0 52,22 40,33 -3,4 -21,7 -40,7 -22,0 -33,5 -33,14 0,8 -5,16 -12,18 -8,3 1,17 21,37 48,47 32,60 -80,60 l -90,0 -34,-37 c -20,-20 -33,-42 -31,-49 3,-7 -36,-45 -87,-86 -117,-93 -113,-91 -139,-73 -12,9 -30,16 -39,16 -19,0 -36,33 -20,38 6,2 9,8 5,13 -3,5 2,16 11,25 9,9 13,24 10,35 -3,10 1,29 10,43 9,14 14,29 11,35 -4,5 1,16 9,24 8,9 15,22 15,30 0,33 34,46 124,48 67,1 105,8 150,26 50,19 80,24 166,24 154,2 245,-14 297,-50 27,-19 45,-26 49,-19 4,7 9,6 14,-2 13,-21 19,15 6,41 -7,15 -22,25 -39,27 -14,2 -35,14 -46,28 -14,17 -29,24 -55,24 -20,0 -36,5 -36,11 0,6 -8,8 -19,4 -14,-4 -23,0 -31,15 -6,12 -22,25 -35,30 -15,6 -26,20 -30,40 -5,23 -16,36 -40,46 -34,14 -45,34 -60,112 -5,22 -16,37 -35,47 -16,8 -31,23 -34,33 -9,27 -72,55 -96,42 -22,-12 -66,-12 -95,-1 -18,7 -15,11 23,30 54,27 61,45 32,77 -33,34 -66,31 -90,-8 z m 140,-223 c 0,-8 -4,-15 -10,-15 -5,0 -7,7 -4,15 4,8 8,15 10,15 2,0 4,-7 4,-15 z m -278,-823 -5,-27 25,23 c 32,29 48,29 20,-1 -19,-20 -20,-26 -9,-50 15,-34 20,-34 38,1 22,44 60,76 78,65 17,-11 41,-74 45,-119 2,-17 10,-42 19,-55 21,-29 21,-43 1,-63 -14,-14 -18,-14 -40,1 -20,13 -24,13 -22,2 2,-10 -9,-15 -34,-17 -34,-3 -38,-6 -38,-30 0,-22 -7,-30 -43,-44 -51,-21 -57,-22 -57,-5 0,7 -13,23 -30,35 -35,27 -39,63 -10,92 24,24 26,40 5,40 -16,0 -20,21 -8,34 4,4 8,21 9,39 1,18 2,40 3,50 1,11 10,21 21,24 14,4 20,14 20,32 0,18 3,22 9,13 4,-7 6,-25 3,-40 z m -92,-89 c -1,-21 -13,-53 -21,-53 -10,0 -12,43 -2,53 9,9 23,9 23,0 z m 370,-182 c 0,-15 -7,-19 -35,-18 -19,1 -35,3 -35,4 0,3 59,31 68,33 1,0 2,-9 2,-19 z"
       id="path100"
       inkscape:connector-curvature="0"
       style="fill:#daa520;fill-opacity:0.94117647" />
    <path
       d="m 1812,1910 c -10,-17 -9,-25 4,-45 9,-14 22,-25 28,-24 6,1 24,-1 39,-6 15,-4 30,-5 33,-2 7,7 -13,46 -39,75 -25,27 -48,28 -65,2 z"
       id="path102"
       inkscape:connector-curvature="0"
       style="fill:#daa520;fill-opacity:0.94117647" />
    <path
       d="m 2020,1900 c 0,-19 3,-21 12,-12 9,9 9,15 0,24 -9,9 -12,7 -12,-12 z"
       id="path104"
       inkscape:connector-curvature="0"
       style="fill:#daa520;fill-opacity:0.94117647" />
    <path
       d="m 675,1728 c -3,-7 -1,-26 4,-43 9,-29 9,-29 10,13 1,41 -5,54 -14,30 z"
       id="path106"
       inkscape:connector-curvature="0"
       style="fill:#daa520;fill-opacity:0.94117647" />
    <path
       d="m 2184,1288 c -15,-7 -21,-18 -20,-38 1,-16 5,-32 9,-36 4,-4 7,-22 7,-40 0,-34 24,-49 53,-33 9,6 33,6 56,0 36,-8 40,-7 38,9 -2,10 -17,30 -35,45 -18,15 -32,37 -32,48 -1,27 -23,57 -41,56 -8,0 -24,-5 -35,-11 z"
       id="path108"
       inkscape:connector-curvature="0"
       style="fill:#daa520;fill-opacity:0.94117647" />
    <path
       d="m 1975,1180 c -3,-5 -1,-10 4,-10 6,0 11,5 11,10 0,6 -2,10 -4,10 -3,0 -8,-4 -11,-10 z"
       id="path110"
       inkscape:connector-curvature="0"
       style="fill:#daa520;fill-opacity:0.94117647" />
    <path
       d="m 1955,1110 c 3,-5 2,-10 -3,-10 -5,0 -9,-11 -9,-25 0,-13 3,-23 6,-20 4,2 16,-10 26,-28 21,-36 46,-58 57,-51 5,3 8,19 8,35 0,17 7,43 15,59 l 16,30 -40,0 c -22,0 -43,5 -46,10 -3,6 -13,10 -21,10 -8,0 -12,-4 -9,-10 z"
       id="path112"
       inkscape:connector-curvature="0"
       style="fill:#daa520;fill-opacity:0.94117647" />
    <path
       d="m 842,1080 c 14,-22 24,-19 15,5 -4,8 -11,15 -17,15 -6,0 -6,-7 2,-20 z"
       id="path114"
       inkscape:connector-curvature="0"
       style="fill:#daa520;fill-opacity:0.94117647" />
    <path
       d="m 2160,1080 c 0,-5 4,-10 9,-10 5,0 11,-8 13,-17 3,-13 6,-10 10,10 4,22 2,27 -13,27 -11,0 -19,-4 -19,-10 z"
       id="path116"
       inkscape:connector-curvature="0"
       style="fill:#daa520;fill-opacity:0.94117647" />
    <path
       d="m 1892,1057 c -6,-7 -7,-18 -2,-26 4,-8 5,-21 2,-30 -5,-14 -3,-14 10,-3 9,7 15,24 14,38 -3,31 -11,38 -24,21 z"
       id="path118"
       inkscape:connector-curvature="0"
       style="fill:#daa520;fill-opacity:0.94117647" />
  </g>
</svg>
